<svg width="128" height="128" viewBox="0 0 128 128" fill="none" xmlns="http://www.w3.org/2000/svg">
  <rect x="1" y="1" width="126" height="126" rx="10" fill="#06060D" />
  <path
    d="M67.4825 48.72C67.2681 46.0533 66.2628 43.9733 64.4668 42.48C62.6976 40.9867 60.0035 40.24 56.3846 40.24C54.0793 40.24 52.1894 40.52 50.715 41.08C49.2675 41.6133 48.1952 42.3467 47.4983 43.28C46.8013 44.2133 46.4394 45.28 46.4126 46.48C46.359 47.4667 46.5332 48.36 46.9353 49.16C47.3642 49.9333 48.0344 50.64 48.9458 51.28C49.8572 51.8933 51.0233 52.4533 52.4441 52.96C53.8648 53.4667 55.5536 53.92 57.5105 54.32L64.2657 55.76C68.8228 56.72 72.7232 57.9867 75.9668 59.56C79.2104 61.1333 81.8642 62.9867 83.9283 65.12C85.9924 67.2267 87.507 69.6 88.472 72.24C89.4639 74.88 89.9732 77.76 90 80.88C89.9732 86.2667 88.6195 90.8267 85.9388 94.56C83.2582 98.2933 79.4248 101.133 74.4388 103.08C69.4796 105.027 63.5152 106 56.5455 106C49.3881 106 43.1422 104.947 37.8077 102.84C32.5 100.733 28.3718 97.4933 25.4231 93.12C22.5012 88.72 21.0268 83.0933 21 76.24H42.2308C42.3648 78.7467 42.9948 80.8533 44.1206 82.56C45.2465 84.2667 46.8281 85.56 48.8654 86.44C50.9295 87.32 53.3823 87.76 56.2238 87.76C58.6096 87.76 60.6066 87.4667 62.215 86.88C63.8234 86.2933 65.0431 85.48 65.8741 84.44C66.7051 83.4 67.134 82.2133 67.1608 80.88C67.134 79.6267 66.7185 78.5333 65.9143 77.6C65.1369 76.64 63.8502 75.7867 62.0542 75.04C60.2582 74.2667 57.8322 73.5467 54.7762 72.88L46.5734 71.12C39.2821 69.5467 33.5321 66.92 29.3234 63.24C25.1416 59.5333 23.0641 54.48 23.0909 48.08C23.0641 42.88 24.458 38.3333 27.2727 34.44C30.1142 30.52 34.0414 27.4667 39.0542 25.28C44.0938 23.0933 49.8706 22 56.3846 22C63.0326 22 68.7826 23.1067 73.6346 25.32C78.4866 27.5333 82.2261 30.6533 84.8531 34.68C87.507 38.68 88.8473 43.36 88.8741 48.72H67.4825Z"
    fill="#FFF6D7" />
  <path
    d="M101.646 85.0004C104.991 84.9766 107.511 85.9202 109.207 87.8314C110.928 89.7187 111.788 92.0838 111.788 94.9267C111.788 97.7696 110.736 100.338 108.634 102.631C106.532 104.901 103.737 106.024 100.249 106C96.7608 106 94.1807 105.08 92.5084 103.24C90.8361 101.377 90 99.0477 90 96.2526C90 93.4336 91.1109 90.8535 93.3326 88.5123C95.5544 86.171 98.3256 85.0004 101.646 85.0004Z"
    fill="#FF5500" />
</svg>